<mxfile host="app.diagrams.net" agent="Mozilla/5.0 (Windows NT 10.0; Win64; x64) AppleWebKit/537.36 (KHTML, like Gecko) Chrome/131.0.0.0 Safari/537.36" version="24.7.16">
  <diagram name="Page-1" id="onyCon3D03PxGVn-cZdC">
    <mxGraphModel dx="1354" dy="778" grid="1" gridSize="10" guides="1" tooltips="1" connect="1" arrows="1" fold="1" page="1" pageScale="1" pageWidth="850" pageHeight="1100" math="0" shadow="0">
      <root>
        <mxCell id="0" />
        <mxCell id="1" parent="0" />
        <mxCell id="GSNVOjpdOCCkmDxatMvK-3" value="" style="edgeStyle=orthogonalEdgeStyle;rounded=0;orthogonalLoop=1;jettySize=auto;html=1;" edge="1" parent="1" source="GSNVOjpdOCCkmDxatMvK-1" target="GSNVOjpdOCCkmDxatMvK-2">
          <mxGeometry relative="1" as="geometry" />
        </mxCell>
        <mxCell id="GSNVOjpdOCCkmDxatMvK-1" value="start" style="ellipse;whiteSpace=wrap;html=1;" vertex="1" parent="1">
          <mxGeometry x="370" y="10" width="100" height="50" as="geometry" />
        </mxCell>
        <mxCell id="GSNVOjpdOCCkmDxatMvK-7" value="" style="edgeStyle=orthogonalEdgeStyle;rounded=0;orthogonalLoop=1;jettySize=auto;html=1;" edge="1" parent="1" source="GSNVOjpdOCCkmDxatMvK-2" target="GSNVOjpdOCCkmDxatMvK-6">
          <mxGeometry relative="1" as="geometry" />
        </mxCell>
        <mxCell id="GSNVOjpdOCCkmDxatMvK-2" value="Guess the pressure field (P_star)" style="whiteSpace=wrap;html=1;" vertex="1" parent="1">
          <mxGeometry x="340" y="135" width="160" height="65" as="geometry" />
        </mxCell>
        <mxCell id="GSNVOjpdOCCkmDxatMvK-15" value="" style="edgeStyle=orthogonalEdgeStyle;rounded=0;orthogonalLoop=1;jettySize=auto;html=1;" edge="1" parent="1" source="GSNVOjpdOCCkmDxatMvK-6" target="GSNVOjpdOCCkmDxatMvK-14">
          <mxGeometry relative="1" as="geometry" />
        </mxCell>
        <mxCell id="GSNVOjpdOCCkmDxatMvK-6" value="Solve discretized x and y momentum equations" style="whiteSpace=wrap;html=1;" vertex="1" parent="1">
          <mxGeometry x="340" y="275" width="160" height="85" as="geometry" />
        </mxCell>
        <mxCell id="GSNVOjpdOCCkmDxatMvK-9" style="edgeStyle=orthogonalEdgeStyle;rounded=0;orthogonalLoop=1;jettySize=auto;html=1;exitX=0;exitY=0.5;exitDx=0;exitDy=0;exitPerimeter=0;" edge="1" parent="1" source="GSNVOjpdOCCkmDxatMvK-8" target="GSNVOjpdOCCkmDxatMvK-6">
          <mxGeometry relative="1" as="geometry" />
        </mxCell>
        <mxCell id="GSNVOjpdOCCkmDxatMvK-11" style="edgeStyle=orthogonalEdgeStyle;rounded=0;orthogonalLoop=1;jettySize=auto;html=1;exitX=1;exitY=0;exitDx=0;exitDy=0;exitPerimeter=0;entryX=0;entryY=0.5;entryDx=0;entryDy=0;" edge="1" parent="1" source="GSNVOjpdOCCkmDxatMvK-8" target="GSNVOjpdOCCkmDxatMvK-10">
          <mxGeometry relative="1" as="geometry" />
        </mxCell>
        <mxCell id="GSNVOjpdOCCkmDxatMvK-13" style="edgeStyle=orthogonalEdgeStyle;rounded=0;orthogonalLoop=1;jettySize=auto;html=1;exitX=1;exitY=1;exitDx=0;exitDy=0;exitPerimeter=0;entryX=0;entryY=0.5;entryDx=0;entryDy=0;" edge="1" parent="1" source="GSNVOjpdOCCkmDxatMvK-8" target="GSNVOjpdOCCkmDxatMvK-12">
          <mxGeometry relative="1" as="geometry" />
        </mxCell>
        <mxCell id="GSNVOjpdOCCkmDxatMvK-8" value="" style="strokeWidth=2;html=1;shape=mxgraph.flowchart.annotation_2;align=left;labelPosition=right;pointerEvents=1;" vertex="1" parent="1">
          <mxGeometry x="530" y="267.5" width="50" height="100" as="geometry" />
        </mxCell>
        <mxCell id="GSNVOjpdOCCkmDxatMvK-10" value="X Momentum iteration&amp;nbsp;" style="rounded=0;whiteSpace=wrap;html=1;" vertex="1" parent="1">
          <mxGeometry x="600" y="240" width="120" height="60" as="geometry" />
        </mxCell>
        <mxCell id="GSNVOjpdOCCkmDxatMvK-12" value="Y Momentum iteration&amp;nbsp;" style="rounded=0;whiteSpace=wrap;html=1;" vertex="1" parent="1">
          <mxGeometry x="600" y="340" width="120" height="60" as="geometry" />
        </mxCell>
        <mxCell id="GSNVOjpdOCCkmDxatMvK-17" value="" style="edgeStyle=orthogonalEdgeStyle;rounded=0;orthogonalLoop=1;jettySize=auto;html=1;" edge="1" parent="1" source="GSNVOjpdOCCkmDxatMvK-14" target="GSNVOjpdOCCkmDxatMvK-16">
          <mxGeometry relative="1" as="geometry" />
        </mxCell>
        <mxCell id="GSNVOjpdOCCkmDxatMvK-20" value="" style="edgeStyle=orthogonalEdgeStyle;rounded=0;orthogonalLoop=1;jettySize=auto;html=1;" edge="1" parent="1" source="GSNVOjpdOCCkmDxatMvK-14" target="GSNVOjpdOCCkmDxatMvK-19">
          <mxGeometry relative="1" as="geometry" />
        </mxCell>
        <mxCell id="GSNVOjpdOCCkmDxatMvK-14" value="Solve discretized pressure equation" style="whiteSpace=wrap;html=1;" vertex="1" parent="1">
          <mxGeometry x="360" y="452.5" width="120" height="60" as="geometry" />
        </mxCell>
        <mxCell id="GSNVOjpdOCCkmDxatMvK-16" value="Pressure correction iteration" style="whiteSpace=wrap;html=1;" vertex="1" parent="1">
          <mxGeometry x="560" y="452.5" width="120" height="60" as="geometry" />
        </mxCell>
        <mxCell id="GSNVOjpdOCCkmDxatMvK-18" value="u_star, v_star" style="text;html=1;align=center;verticalAlign=middle;whiteSpace=wrap;rounded=0;" vertex="1" parent="1">
          <mxGeometry x="350" y="390" width="60" height="30" as="geometry" />
        </mxCell>
        <mxCell id="GSNVOjpdOCCkmDxatMvK-23" value="" style="edgeStyle=orthogonalEdgeStyle;rounded=0;orthogonalLoop=1;jettySize=auto;html=1;" edge="1" parent="1" source="GSNVOjpdOCCkmDxatMvK-19" target="GSNVOjpdOCCkmDxatMvK-22">
          <mxGeometry relative="1" as="geometry" />
        </mxCell>
        <mxCell id="GSNVOjpdOCCkmDxatMvK-19" value="Compute corrected velocities (u_prime, v_prime)" style="whiteSpace=wrap;html=1;" vertex="1" parent="1">
          <mxGeometry x="360" y="592.5" width="120" height="60" as="geometry" />
        </mxCell>
        <mxCell id="GSNVOjpdOCCkmDxatMvK-21" value="P_prime" style="text;html=1;align=center;verticalAlign=middle;whiteSpace=wrap;rounded=0;" vertex="1" parent="1">
          <mxGeometry x="430" y="535" width="60" height="30" as="geometry" />
        </mxCell>
        <mxCell id="GSNVOjpdOCCkmDxatMvK-27" value="" style="edgeStyle=orthogonalEdgeStyle;rounded=0;orthogonalLoop=1;jettySize=auto;html=1;" edge="1" parent="1" source="GSNVOjpdOCCkmDxatMvK-22" target="GSNVOjpdOCCkmDxatMvK-26">
          <mxGeometry relative="1" as="geometry" />
        </mxCell>
        <mxCell id="GSNVOjpdOCCkmDxatMvK-22" value="correct all the fields&lt;div&gt;p = p_prime + p_star&lt;/div&gt;&lt;div&gt;u = u_prime + u_star&lt;/div&gt;&lt;div&gt;v = v_prime + v_star&lt;/div&gt;" style="whiteSpace=wrap;html=1;" vertex="1" parent="1">
          <mxGeometry x="355" y="732.5" width="130" height="87.5" as="geometry" />
        </mxCell>
        <mxCell id="GSNVOjpdOCCkmDxatMvK-25" value="P_prime, u_prime, v_prime" style="text;html=1;align=center;verticalAlign=middle;whiteSpace=wrap;rounded=0;" vertex="1" parent="1">
          <mxGeometry x="425" y="670" width="75" height="40" as="geometry" />
        </mxCell>
        <mxCell id="GSNVOjpdOCCkmDxatMvK-29" value="" style="edgeStyle=orthogonalEdgeStyle;rounded=0;orthogonalLoop=1;jettySize=auto;html=1;entryX=0.5;entryY=0;entryDx=0;entryDy=0;" edge="1" parent="1" source="GSNVOjpdOCCkmDxatMvK-26" target="GSNVOjpdOCCkmDxatMvK-30">
          <mxGeometry relative="1" as="geometry">
            <mxPoint x="420" y="1094.375" as="targetPoint" />
          </mxGeometry>
        </mxCell>
        <mxCell id="GSNVOjpdOCCkmDxatMvK-32" style="edgeStyle=orthogonalEdgeStyle;rounded=0;orthogonalLoop=1;jettySize=auto;html=1;exitX=0;exitY=0.5;exitDx=0;exitDy=0;entryX=0;entryY=0.5;entryDx=0;entryDy=0;" edge="1" parent="1" source="GSNVOjpdOCCkmDxatMvK-26" target="GSNVOjpdOCCkmDxatMvK-2">
          <mxGeometry relative="1" as="geometry">
            <Array as="points">
              <mxPoint x="260" y="938" />
              <mxPoint x="260" y="168" />
            </Array>
          </mxGeometry>
        </mxCell>
        <mxCell id="GSNVOjpdOCCkmDxatMvK-26" value="is error&amp;lt;tolerance" style="rhombus;whiteSpace=wrap;html=1;" vertex="1" parent="1">
          <mxGeometry x="365" y="880" width="110" height="116.25" as="geometry" />
        </mxCell>
        <mxCell id="GSNVOjpdOCCkmDxatMvK-30" value="stop" style="ellipse;whiteSpace=wrap;html=1;" vertex="1" parent="1">
          <mxGeometry x="360" y="1070" width="120" height="50" as="geometry" />
        </mxCell>
        <mxCell id="GSNVOjpdOCCkmDxatMvK-31" value="Yes" style="text;html=1;align=center;verticalAlign=middle;resizable=0;points=[];autosize=1;strokeColor=none;fillColor=none;" vertex="1" parent="1">
          <mxGeometry x="420" y="1008" width="40" height="30" as="geometry" />
        </mxCell>
        <mxCell id="GSNVOjpdOCCkmDxatMvK-33" value="Text" style="text;html=1;align=center;verticalAlign=middle;resizable=0;points=[];autosize=1;strokeColor=none;fillColor=none;" vertex="1" parent="1">
          <mxGeometry x="285" y="938" width="50" height="30" as="geometry" />
        </mxCell>
      </root>
    </mxGraphModel>
  </diagram>
</mxfile>
